<svg width="14" height="20" viewBox="0 0 14 20" fill="none" xmlns="http://www.w3.org/2000/svg">
<path d="M4.17642 18.4501L4.17644 18.4501C5.1228 18.53 6.09771 18.5673 7.15569 18.5637L7.16054 18.5637C7.20425 18.564 7.24792 18.564 7.29342 18.564C8.302 18.564 9.23465 18.5266 10.1409 18.4501L10.183 18.9484L10.1409 18.4501C10.8825 18.3876 11.5726 18.0333 12.1377 17.3944L12.1377 17.3944C12.6823 16.7786 13.0743 15.9231 13.2768 14.8223L13.2768 14.8223C13.4547 13.8557 13.4653 12.9013 13.4748 11.9315L13.4748 11.9315C13.4817 11.2402 13.4889 10.4224 13.4902 9.59123C13.4902 9.59103 13.4902 9.59084 13.4902 9.59064V9.5888C13.4902 9.5886 13.4902 9.58841 13.4902 9.58821C13.4889 8.75699 13.4817 7.93921 13.4748 7.24795L13.4748 7.2479C13.4653 6.27815 13.4546 5.32358 13.2768 4.35714C13.0743 3.25638 12.6823 2.40086 12.1377 1.78507L12.1377 1.78505C11.5726 1.14611 10.8825 0.7919 10.141 0.729312L4.17642 18.4501ZM4.17642 18.4501C3.43487 18.3876 2.74473 18.0333 2.17968 17.3944C1.63512 16.7786 1.24308 15.923 1.04052 14.8223L4.17642 18.4501ZM0.827149 9.59145C0.828608 10.4226 0.835678 11.2404 0.842552 11.9315L0.842552 11.9315C0.852096 12.9014 0.862724 13.8559 1.04052 14.8223L0.827149 9.59145ZM0.827149 9.59145C0.828608 8.75679 0.835678 7.93906 0.842552 7.24795L0.842552 7.2479C0.852095 6.27816 0.862723 5.32373 1.04052 4.35714L0.827149 9.59145ZM2.17968 1.78505C2.74471 1.14611 3.43483 0.791899 4.17647 0.729312L2.17968 1.78505ZM2.17968 1.78505C1.63512 2.40086 1.24309 3.2564 1.04052 4.3571L2.17968 1.78505ZM7.16147 0.615712L7.1583 0.615722C6.09808 0.612141 5.12294 0.649554 4.17652 0.729308L7.16147 0.615712ZM7.16147 0.615712C8.21997 0.61257 9.19463 0.649563 10.1409 0.729308L7.16147 0.615712ZM12.2122 16.9095L12.2122 16.9096C11.6595 17.5346 10.9649 17.9011 10.1601 17.969C9.20475 18.0495 8.22316 18.0868 7.15716 18.0834C6.09419 18.087 5.11243 18.0495 4.15722 17.9688C4.1572 17.9688 4.15717 17.9688 4.15714 17.9688L12.2122 16.9095ZM12.2122 16.9095C12.7264 16.328 13.0577 15.5522 13.226 14.6372C13.3894 13.7493 13.3987 12.8056 13.4072 11.9424L13.4074 11.9212C13.4142 11.2337 13.4213 10.4182 13.4227 9.5906L13.4227 9.58884M12.2122 16.9095L13.4227 9.58884M13.4227 9.58884C13.4213 8.76113 13.4142 7.94573 13.4074 7.25828L13.4072 7.23707C13.3987 6.37387 13.3894 5.43015 13.226 4.54208L13.226 4.54206M13.4227 9.58884L13.226 4.54206M13.226 4.54206C13.0577 3.62713 12.7264 2.85134 12.2122 2.26976L12.2122 2.26968M13.226 4.54206L12.2122 2.26968M12.2122 2.26968C11.6595 1.64488 10.9649 1.27831 10.1602 1.21046L12.2122 2.26968ZM2.10512 2.26976L2.10519 2.26968C2.65784 1.64488 3.35243 1.27831 4.15714 1.21046L2.10512 2.26976ZM2.10512 2.26976C1.59091 2.85134 1.25969 3.62713 1.09135 4.54206L1.09134 4.54208M2.10512 2.26976L1.09134 4.54208M1.09134 4.54208C0.927962 5.43016 0.918672 6.37373 0.910173 7.23708L0.909964 7.25829C0.903185 7.94631 0.89608 8.76229 0.894614 9.59057L0.894617 9.59234M1.09134 4.54208L0.894617 9.59234M0.894617 9.59234C0.89608 10.417 0.903185 11.2331 0.909964 11.9212L1.40994 11.9162L0.894617 9.59234ZM10.1601 1.21046C9.20469 1.12977 8.22317 1.09275 7.15994 1.09593C6.09424 1.09246 5.11259 1.12978 4.15722 1.21046H10.1601ZM7.13194 13.7158C6.41406 13.7158 5.71684 13.3116 5.17984 12.5669C4.64353 11.8232 4.2961 10.7716 4.2961 9.58972C4.2961 8.40788 4.64353 7.35626 5.17984 6.61253C5.71684 5.86784 6.41406 5.4636 7.13194 5.4636C7.84988 5.4636 8.5471 5.86785 9.08407 6.61253C9.62037 7.35626 9.96778 8.40788 9.96778 9.58972C9.96778 10.7716 9.62037 11.8232 9.08407 12.5669C8.5471 13.3116 7.84988 13.7158 7.13194 13.7158ZM7.13194 5.94396C6.3048 5.94396 5.60097 6.41135 5.12317 7.07396C4.64469 7.73752 4.36357 8.62886 4.36357 9.58972C4.36357 10.5506 4.64469 11.4419 5.12317 12.1055C5.60097 12.7681 6.3048 13.2355 7.13194 13.2355C7.95913 13.2355 8.66296 12.7681 9.14075 12.1055C9.61922 11.4419 9.90031 10.5506 9.90031 9.58972C9.90031 8.62887 9.61922 7.73753 9.14075 7.07396C8.66296 6.41135 7.95913 5.94396 7.13194 5.94396ZM10.5408 4.59351C10.5408 4.38014 10.6039 4.20758 10.6808 4.10087C10.7583 3.99345 10.8216 3.98324 10.8414 3.98324C10.8613 3.98324 10.9245 3.99347 11.002 4.10085C11.0789 4.20755 11.142 4.38011 11.142 4.59351C11.142 4.80691 11.0789 4.97947 11.002 5.08617C10.9245 5.19355 10.8613 5.20378 10.8414 5.20378C10.8216 5.20378 10.7583 5.19357 10.6808 5.08615C10.6039 4.97944 10.5408 4.80688 10.5408 4.59351Z" fill="#334155" stroke="#334155"/>
</svg>
