<svg width="12" height="20" viewBox="0 0 12 20" fill="none" xmlns="http://www.w3.org/2000/svg">
<path d="M2.27834 10.7755C2.29173 10.7036 2.30569 10.6285 2.31971 10.5531C2.35859 10.3441 2.39789 10.1327 2.42644 9.98153C2.01183 9.30517 1.71516 8.16624 1.71516 7.1161C1.71516 5.76231 2.10187 4.40878 2.84375 3.38028C3.59255 2.34218 4.7136 1.62767 6.13507 1.62767C7.36733 1.62767 8.41648 2.18826 9.145 3.12663C9.86711 4.05677 10.2638 5.34029 10.2638 6.80225C10.2638 8.41292 9.95756 9.81378 9.42008 10.8314C8.8875 11.8398 8.06935 12.5619 7.03605 12.5619C6.41245 12.5619 5.89277 12.219 5.57582 11.7234C5.26043 11.2303 5.13675 10.5812 5.25658 9.89816L5.25679 9.89697C5.34836 9.38234 5.47339 8.84813 5.59113 8.34511C5.63333 8.1648 5.6746 7.98849 5.71305 7.81852C5.86374 7.15239 5.96984 6.58918 5.96984 6.15915C5.96984 5.77455 5.88996 5.4716 5.77274 5.28266C5.66818 5.1141 5.54399 5.04253 5.37329 5.04253C5.19056 5.04253 4.9336 5.16976 4.69519 5.58704C4.46257 5.99418 4.30021 6.60282 4.30021 7.33638C4.30021 7.80307 4.35983 8.19311 4.41863 8.46392C4.44798 8.59906 4.47694 8.7037 4.49776 8.77237C4.50816 8.80668 4.5165 8.83193 4.5218 8.84743L4.52733 8.86325L4.52762 8.86409L4.52769 8.86429L4.52783 8.86464L4.52802 8.86517L4.52804 8.86521L4.52814 8.86549L4.57627 8.99281L4.55205 9.1285L4.05983 9.04064L4.55204 9.12856L4.55201 9.12872L4.55189 9.12938L4.55142 9.13199L4.54958 9.14234L4.54236 9.18277L4.51482 9.33707L4.41531 9.89459L4.10252 11.6474C3.86778 12.963 3.61315 14.3906 3.53331 14.84C3.40902 15.5409 3.41484 16.4892 3.46069 17.3154C3.46227 17.3438 3.46389 17.3721 3.46555 17.4001C3.76023 16.703 4.06062 15.8876 4.1917 15.2193L2.27834 10.7755ZM2.27834 10.7755C2.01247 10.4764 1.76472 10.041 1.56392 9.50263C1.27934 8.73967 1.12073 7.85342 1.12073 7.07228C1.12073 5.34235 1.59643 3.71511 2.48434 2.53343C3.36217 1.36516 4.6521 0.615479 6.35711 0.615479C9.0027 0.615479 11.2127 3.12837 11.222 6.74943C11.2219 8.65526 10.7656 10.3463 10.0244 11.5438C9.28299 12.7416 8.29548 13.3964 7.21454 13.3964C6.54117 13.3964 5.89821 12.9222 5.68734 12.394L5.06081 10.8249L4.73252 12.4823L5.22299 12.5794M2.27834 10.7755L5.22299 12.5794M5.22299 12.5794L4.73251 12.4823L4.7325 12.4824L4.73244 12.4827L4.7322 12.4839L4.73127 12.4886L4.72761 12.5071L4.71363 12.5777L4.66293 12.8337L4.50191 13.6474C4.38008 14.2633 4.24484 14.9477 4.19174 15.2191L5.22299 12.5794ZM2.65471 11.0986C2.65472 11.0987 2.65405 11.0983 2.65266 11.0975C2.65401 11.0982 2.6547 11.0986 2.65471 11.0986Z" fill="#334155" stroke="#334155"/>
</svg>
