<svg width="18" height="20" viewBox="0 0 18 20" fill="none" xmlns="http://www.w3.org/2000/svg">
<path d="M5.62465 14.4451C4.60313 14.4145 3.61072 13.5724 3.08723 12.1956C3.44205 12.1909 3.79263 12.131 4.12208 12.0061L5.53563 11.4701L4.08127 11.0575C2.97631 10.7441 1.97962 9.44907 1.73817 7.67225C2.05179 7.79445 2.38485 7.86796 2.72717 7.87697L4.05241 7.91184L3.08027 7.01049C2.28416 6.27235 1.70895 4.94759 1.70895 3.40378C1.70895 2.96952 1.75468 2.55278 1.83852 2.15918C3.57851 4.64956 6.00034 6.30073 8.75322 6.48693L9.38219 6.52947L9.2804 5.90734C9.22906 5.59354 9.20708 5.25712 9.20708 4.8978C9.20708 3.67381 9.5649 2.583 10.12 1.81078C10.6755 1.03796 11.3999 0.615479 12.1524 0.615479C12.9268 0.615479 13.6897 1.07149 14.2567 1.90881L14.4581 2.20617L14.8042 2.1103C15.1648 2.01041 15.5152 1.87738 15.8536 1.71252C15.6199 2.12442 15.3361 2.46794 15.0213 2.7286L13.5653 3.93423L15.427 3.60613C15.6618 3.56475 15.8934 3.5098 16.1215 3.4414C15.853 3.82695 15.5617 4.17587 15.248 4.48459L15.0911 4.63905L15.0991 4.8591C15.1063 5.05828 15.1114 5.25582 15.1114 5.45897C15.1114 8.53647 14.2643 11.8418 12.6622 14.3622C11.0641 16.8763 8.75091 18.564 5.79885 18.564C4.46074 18.564 3.18597 18.17 2.0266 17.4411C3.53235 17.253 4.8939 16.4591 5.9773 15.2838L6.72011 14.478L5.62465 14.4451Z" fill="#334155" stroke="#334155"/>
</svg>
